<?xml version="1.0" encoding="UTF-8"?>
<svg width="201px" height="58px" viewBox="0 0 201 58" version="1.1" xmlns="http://www.w3.org/2000/svg" xmlns:xlink="http://www.w3.org/1999/xlink">
    <title>Group 5 2</title>
    <g id="Page-1" stroke="none" stroke-width="1" fill="none" fill-rule="evenodd">
        <g id="Group-Copy" transform="translate(-221.000000, -0.000000)" fill-rule="nonzero">
            <g id="Group-5" transform="translate(221.872000, 0.000000)">
                <path d="M192.5,1.15680289 C195.928,1.15680289 198.717,3.87646289 198.717,7.21875289 L198.717,50.5312129 C198.717,53.8735129 195.928,56.5932129 192.5,56.5932129 L7.403,56.5932129 C3.975,56.5932129 1.186,53.8735129 1.186,50.5312129 L1.186,7.21875289 C1.186,3.87646289 3.975,1.15680289 7.403,1.15680289 L192.5,1.15680289 Z M192.5,0 L7.403,0 C3.333,0 0,3.25024289 0,7.21875289 L0,50.5312129 C0,54.4998129 3.333,57.7500129 7.403,57.7500129 L192.5,57.7500129 C196.57,57.7500129 199.903,54.4998129 199.903,50.5312129 L199.903,7.21875289 C199.903,3.25024289 196.57,0 192.5,0 Z" id="Shape" fill="#A6A6A6"></path>
                <path d="M44.612,28.5629129 C44.569,23.9097129 48.52,21.6459129 48.701,21.5405129 C46.463,18.3600129 42.995,17.9254129 41.777,17.8907129 C38.864,17.5919129 36.039,19.5900129 34.555,19.5900129 C33.042,19.5900129 30.757,17.9196129 28.294,17.9687129 C25.125,18.0164129 22.161,19.8052129 20.535,22.5829129 C17.18,28.2468129 19.682,36.5700129 22.897,41.1481129 C24.505,43.3903129 26.384,45.8937129 28.844,45.8057129 C31.25,45.7089129 32.149,44.3099129 35.052,44.3099129 C37.93,44.3099129 38.774,45.8057129 41.282,45.7494129 C43.864,45.7089129 45.49,43.4971129 47.042,41.2347129 C48.901,38.6649129 49.647,36.1340129 49.676,36.0040129 C49.616,35.9838129 44.661,34.1402129 44.612,28.5629129 Z" id="Path" fill="#000000"></path>
                <path d="M39.874,14.8791129 C41.168,13.3011129 42.053,11.1542129 41.808,8.97560289 C39.934,9.05645289 37.592,10.2389129 36.243,11.7822129 C35.049,13.1422129 33.983,15.3714129 34.259,17.4677129 C36.363,17.6208129 38.523,16.4326129 39.874,14.8791129 Z" id="Path" fill="#000000"></path>
                <path d="M79.435,45.4839129 L76.073,45.4839129 L74.23,39.8403129 L67.828,39.8403129 L66.073,45.4839129 L62.799,45.4839129 L69.143,26.2705129 L73.061,26.2705129 L79.435,45.4839129 Z M73.675,37.4726129 L72.009,32.4555129 C71.833,31.9430129 71.503,30.7360129 71.016,28.8361129 L70.956,28.8361129 C70.762,29.6532129 70.45,30.8602129 70.021,32.4555129 L68.384,37.4726129 L73.675,37.4726129 Z" id="Shape" fill="#000000"></path>
                <path d="M95.75,38.3869129 C95.75,40.7431129 95.097,42.6055129 93.791,43.9727129 C92.621,45.1898129 91.169,45.7976129 89.435,45.7976129 C87.563,45.7976129 86.219,45.1422129 85.4,43.8313129 L85.34,43.8313129 L85.34,51.1294129 L82.183,51.1294129 L82.183,36.1909129 C82.183,34.7096129 82.143,33.1894129 82.066,31.6301129 L84.843,31.6301129 L85.019,33.8261129 L85.078,33.8261129 C86.131,32.1715129 87.729,31.3457129 89.873,31.3457129 C91.549,31.3457129 92.949,31.9911129 94.068,33.2832129 C95.191,34.5768129 95.75,36.2776129 95.75,38.3869129 Z M92.534,38.4995129 C92.534,37.1510129 92.223,36.0393129 91.598,35.1644129 C90.916,34.2520129 89.999,33.7957129 88.85,33.7957129 C88.071,33.7957129 87.363,34.0498129 86.731,34.5508129 C86.097,35.0561129 85.683,35.7159129 85.489,36.5331129 C85.391,36.9142129 85.342,37.2261129 85.342,37.4715129 L85.342,39.7815129 C85.342,40.7893129 85.659,41.6396129 86.293,42.3341129 C86.926,43.0285129 87.75,43.3750129 88.763,43.3750129 C89.952,43.3750129 90.877,42.9275129 91.539,42.0352129 C92.202,41.1415129 92.534,39.9634129 92.534,38.4995129 Z" id="Shape" fill="#000000"></path>
                <path d="M112.093,38.3869129 C112.093,40.7431129 111.44,42.6055129 110.132,43.9727129 C108.964,45.1898129 107.512,45.7976129 105.778,45.7976129 C103.906,45.7976129 102.561,45.1422129 101.744,43.8313129 L101.685,43.8313129 L101.685,51.1294129 L98.528,51.1294129 L98.528,36.1909129 C98.528,34.7096129 98.488,33.1894129 98.411,31.6301129 L101.187,31.6301129 L101.363,33.8261129 L101.423,33.8261129 C102.474,32.1715129 104.072,31.3457129 106.217,31.3457129 C107.892,31.3457129 109.291,31.9911129 110.414,33.2832129 C111.532,34.5768129 112.093,36.2776129 112.093,38.3869129 Z M108.877,38.4995129 C108.877,37.1510129 108.564,36.0393129 107.939,35.1644129 C107.257,34.2520129 106.343,33.7957129 105.193,33.7957129 C104.412,33.7957129 103.706,34.0498129 103.072,34.5508129 C102.438,35.0561129 102.025,35.7159129 101.831,36.5331129 C101.735,36.9142129 101.685,37.2261129 101.685,37.4715129 L101.685,39.7815129 C101.685,40.7893129 102.002,41.6396129 102.632,42.3341129 C103.266,43.0271129 104.089,43.3750129 105.105,43.3750129 C106.294,43.3750129 107.22,42.9275129 107.882,42.0352129 C108.545,41.1415129 108.877,39.9634129 108.877,38.4995129 Z" id="Shape" fill="#000000"></path>
                <path d="M130.364,40.0957129 C130.364,41.7300129 129.783,43.0597129 128.614,44.0862129 C127.33,45.2080129 125.543,45.7682129 123.246,45.7682129 C121.126,45.7682129 119.426,45.3697129 118.139,44.5713129 L118.871,42.0057129 C120.257,42.8229129 121.777,43.2329129 123.434,43.2329129 C124.624,43.2329129 125.549,42.9702129 126.214,42.4475129 C126.876,41.9249129 127.206,41.2232129 127.206,40.3483129 C127.206,39.5687129 126.934,38.9118129 126.387,38.3790129 C125.844,37.8463129 124.936,37.3511129 123.668,36.8934129 C120.218,35.6388129 118.495,33.8009129 118.495,31.3841129 C118.495,29.8046129 119.099,28.5096129 120.309,27.5018129 C121.514,26.4926129 123.122,25.9888129 125.133,25.9888129 C126.926,25.9888129 128.416,26.2934129 129.605,26.9012129 L128.816,29.4105129 C127.705,28.8214129 126.449,28.5269129 125.044,28.5269129 C123.933,28.5269129 123.066,28.7940129 122.444,29.3253129 C121.918,29.8003129 121.655,30.3792129 121.655,31.0650129 C121.655,31.8244129 121.955,32.4524129 122.559,32.9462129 C123.085,33.4024129 124.04,33.8962129 125.426,34.4289129 C127.122,35.0945129 128.367,35.8727129 129.168,36.7649129 C129.966,37.6543129 130.364,38.7674129 130.364,40.0957129 Z" id="Path" fill="#000000"></path>
                <path d="M140.803,33.9393129 L137.323,33.9393129 L137.323,40.6657129 C137.323,42.3765129 137.936,43.2312129 139.165,43.2312129 C139.73,43.2312129 140.197,43.1836129 140.568,43.0883129 L140.655,45.4257129 C140.033,45.6524129 139.214,45.7665129 138.2,45.7665129 C136.953,45.7665129 135.979,45.3954129 135.275,44.6548129 C134.575,43.9127129 134.223,42.6682129 134.223,40.9198129 L134.223,33.9364129 L132.149,33.9364129 L132.149,31.6264129 L134.223,31.6264129 L134.223,29.0897129 L137.323,28.1772129 L137.323,31.6264129 L140.803,31.6264129 L140.803,33.9393129 Z" id="Path" fill="#000000"></path>
                <path d="M156.503,38.4427129 C156.503,40.5722129 155.878,42.3206129 154.632,43.6879129 C153.324,45.0955129 151.589,45.7972129 149.425,45.7972129 C147.34,45.7972129 145.68,45.1229129 144.442,43.7745129 C143.204,42.4260129 142.586,40.7238129 142.586,38.6723129 C142.586,36.5254129 143.222,34.7669129 144.5,33.3997129 C145.775,32.0310129 147.496,31.3467129 149.659,31.3467129 C151.744,31.3467129 153.422,32.0209129 154.688,33.3708129 C155.899,34.6803129 156.503,36.3709129 156.503,38.4427129 Z M153.228,38.5423129 C153.228,37.2646129 152.948,36.1688129 152.381,35.2549129 C151.719,34.1490129 150.773,33.5975129 149.547,33.5975129 C148.278,33.5975129 147.314,34.1504129 146.652,35.2549129 C146.085,36.1702129 145.805,37.2834129 145.805,38.6001129 C145.805,39.8778129 146.085,40.9736129 146.652,41.8861129 C147.334,42.9920129 148.288,43.5435129 149.518,43.5435129 C150.724,43.5435129 151.67,42.9804129 152.353,41.8572129 C152.935,40.9260129 153.228,39.8186129 153.228,38.5423129 Z" id="Shape" fill="#000000"></path>
                <path d="M166.765,34.3372129 C166.453,34.2808129 166.12,34.2520129 165.77,34.2520129 C164.66,34.2520129 163.801,34.6606129 163.197,35.4792129 C162.671,36.2010129 162.408,37.1135129 162.408,38.2151129 L162.408,45.4844129 L159.252,45.4844129 L159.282,35.9931129 C159.282,34.3963129 159.242,32.9425129 159.163,31.6316129 L161.913,31.6316129 L162.028,34.2823129 L162.116,34.2823129 C162.449,33.3713129 162.975,32.6379129 163.694,32.0878129 C164.398,31.5926129 165.157,31.3457129 165.976,31.3457129 C166.268,31.3457129 166.532,31.3659129 166.765,31.4020129 L166.765,34.3372129 Z" id="Path" fill="#000000"></path>
                <path d="M180.884,37.9014129 C180.884,38.4529129 180.847,38.9178129 180.768,39.2975129 L171.297,39.2975129 C171.334,40.6662129 171.792,41.7129129 172.672,42.4348129 C173.47,43.0801129 174.502,43.4035129 175.769,43.4035129 C177.172,43.4035129 178.451,43.1855129 179.602,42.7481129 L180.096,44.8848129 C178.752,45.4565129 177.164,45.7410129 175.333,45.7410129 C173.129,45.7410129 171.4,45.1086129 170.141,43.8453129 C168.885,42.5820129 168.256,40.8856129 168.256,38.7575129 C168.256,36.6684129 168.841,34.9287129 170.012,33.5413129 C171.238,32.0600129 172.895,31.3193129 174.98,31.3193129 C177.028,31.3193129 178.578,32.0600129 179.631,33.5413129 C180.465,34.7179129 180.884,36.1732129 180.884,37.9014129 Z M177.874,37.1030129 C177.894,36.1905129 177.688,35.4023129 177.26,34.7367129 C176.714,33.8805129 175.874,33.4532129 174.745,33.4532129 C173.713,33.4532129 172.873,33.8704129 172.232,34.7078129 C171.706,35.3734129 171.394,36.1718129 171.297,37.1016129 L177.874,37.1016129 L177.874,37.1030129 Z" id="Shape" fill="#000000"></path>
                <path d="M72.633,14.4509129 C72.633,16.1502129 72.11,17.4293129 71.066,18.2884129 C70.099,19.0810129 68.725,19.4780129 66.945,19.4780129 C66.062,19.4780129 65.307,19.4405129 64.675,19.3654129 L64.675,10.0806129 C65.5,9.95070289 66.388,9.88429289 67.348,9.88429289 C69.043,9.88429289 70.321,10.2438129 71.183,10.9628129 C72.148,11.7756129 72.633,12.9378129 72.633,14.4509129 Z M70.996,14.4927129 C70.996,13.3911129 70.697,12.5466129 70.099,11.9575129 C69.501,11.3699129 68.627,11.0754129 67.476,11.0754129 C66.988,11.0754129 66.572,11.1071129 66.227,11.1735129 L66.227,18.2320129 C66.418,18.2609129 66.767,18.2739129 67.275,18.2739129 C68.463,18.2739129 69.379,17.9520129 70.025,17.3080129 C70.671,16.6641129 70.996,15.7257129 70.996,14.4927129 Z" id="Shape" fill="#000000"></path>
                <path d="M81.308,15.9349129 C81.308,16.9816129 81.001,17.8392129 80.388,18.5120129 C79.746,19.2036129 78.894,19.5486129 77.831,19.5486129 C76.806,19.5486129 75.991,19.2180129 75.382,18.5539129 C74.775,17.8912129 74.471,17.0553129 74.471,16.0475129 C74.471,14.9936129 74.784,14.1288129 75.412,13.4574129 C76.039,12.7861129 76.883,12.4497129 77.947,12.4497129 C78.971,12.4497129 79.795,12.7803129 80.418,13.4430129 C81.01,14.0869129 81.308,14.9185129 81.308,15.9349129 Z M79.698,15.9840129 C79.698,15.3560129 79.559,14.8175129 79.282,14.3685129 C78.957,13.8256129 78.493,13.5542129 77.89,13.5542129 C77.267,13.5542129 76.793,13.8256129 76.467,14.3685129 C76.189,14.8175129 76.051,15.3646129 76.051,16.0114129 C76.051,16.6395129 76.19,17.1780129 76.467,17.6270129 C76.803,18.1698129 77.271,18.4413129 77.876,18.4413129 C78.468,18.4413129 78.933,18.1655129 79.267,17.6126129 C79.555,17.1549129 79.698,16.6120129 79.698,15.9840129 Z" id="Shape" fill="#000000"></path>
                <path d="M92.94,12.5889129 L90.756,19.3947129 L89.335,19.3947129 L88.43,16.4393129 C88.2,15.7016129 88.014,14.9682129 87.869,14.2405129 L87.841,14.2405129 C87.706,14.9884129 87.519,15.7204129 87.279,16.4393129 L86.318,19.3947129 L84.881,19.3947129 L82.827,12.5889129 L84.422,12.5889129 L85.211,15.8243129 C85.402,16.5895129 85.559,17.3186129 85.685,18.0087129 L85.713,18.0087129 C85.828,17.4399129 86.019,16.7151129 86.289,15.8388129 L87.279,12.5903129 L88.544,12.5903129 L89.493,15.7694129 C89.723,16.5447129 89.909,17.2912129 90.053,18.0102129 L90.096,18.0102129 C90.201,17.3099129 90.359,16.5635129 90.57,15.7694129 L91.417,12.5903129 L92.94,12.5903129 L92.94,12.5889129 Z" id="Path" fill="#000000"></path>
                <path d="M100.985,19.3941129 L99.433,19.3941129 L99.433,15.4960129 C99.433,14.2948129 98.965,13.6942129 98.026,13.6942129 C97.566,13.6942129 97.194,13.8587129 96.905,14.1894129 C96.62,14.5200129 96.474,14.9098129 96.474,15.3559129 L96.474,19.3926129 L94.923,19.3926129 L94.923,14.5330129 C94.923,13.9353129 94.903,13.2870129 94.866,12.5854129 L96.23,12.5854129 L96.303,13.6494129 L96.346,13.6494129 C96.526,13.3188129 96.796,13.0459129 97.15,12.8279129 C97.57,12.5738129 98.041,12.4453129 98.556,12.4453129 C99.208,12.4453129 99.75,12.6503129 100.181,13.0618129 C100.717,13.5657129 100.985,14.3179129 100.985,15.3169129 L100.985,19.3941129 Z" id="Path" fill="#000000"></path>
                <polygon id="Path" fill="#000000" points="105.266 19.3940129 103.715 19.3940129 103.715 9.46534289 105.266 9.46534289"></polygon>
                <path d="M114.402,15.9349129 C114.402,16.9816129 114.095,17.8392129 113.482,18.5120129 C112.84,19.2036129 111.987,19.5486129 110.925,19.5486129 C109.899,19.5486129 109.083,19.2180129 108.476,18.5539129 C107.869,17.8912129 107.565,17.0553129 107.565,16.0475129 C107.565,14.9936129 107.877,14.1288129 108.505,13.4574129 C109.133,12.7861129 109.977,12.4497129 111.039,12.4497129 C112.065,12.4497129 112.887,12.7803129 113.512,13.4430129 C114.104,14.0869129 114.402,14.9185129 114.402,15.9349129 Z M112.791,15.9840129 C112.791,15.3560129 112.651,14.8175129 112.375,14.3685129 C112.05,13.8256129 111.585,13.5542129 110.984,13.5542129 C110.359,13.5542129 109.885,13.8256129 109.561,14.3685129 C109.283,14.8175129 109.145,15.3646129 109.145,16.0114129 C109.145,16.6395129 109.284,17.1780129 109.561,17.6270129 C109.897,18.1698129 110.365,18.4413129 110.969,18.4413129 C111.562,18.4413129 112.025,18.1655129 112.36,17.6126129 C112.648,17.1549129 112.791,16.6120129 112.791,15.9840129 Z" id="Shape" fill="#000000"></path>
                <path d="M121.912,19.3941129 L120.518,19.3941129 L120.403,18.6102129 L120.36,18.6102129 C119.883,19.2353129 119.203,19.5486129 118.321,19.5486129 C117.662,19.5486129 117.129,19.3422129 116.728,18.9321129 C116.363,18.5597129 116.181,18.0962129 116.181,17.5461129 C116.181,16.7145129 116.537,16.0807129 117.252,15.6418129 C117.966,15.2029129 118.97,14.9878129 120.262,14.9979129 L120.262,14.8709129 C120.262,13.9743129 119.779,13.5267129 118.813,13.5267129 C118.124,13.5267129 117.517,13.6957129 116.993,14.0306129 L116.677,13.0373129 C117.326,12.6461129 118.127,12.4497129 119.072,12.4497129 C120.896,12.4497129 121.811,13.3881129 121.811,15.2650129 L121.811,17.7714129 C121.811,18.4514129 121.845,18.9928129 121.912,19.3941129 Z M120.301,17.0553129 L120.301,16.0057129 C118.589,15.9768129 117.733,16.4345129 117.733,17.3772129 C117.733,17.7324129 117.831,17.9980129 118.031,18.1756129 C118.231,18.3532129 118.485,18.4413129 118.789,18.4413129 C119.129,18.4413129 119.448,18.3359129 119.738,18.1265129 C120.03,17.9157129 120.209,17.6487129 120.276,17.3209129 C120.292,17.2473129 120.301,17.1578129 120.301,17.0553129 Z" id="Shape" fill="#000000"></path>
                <path d="M130.729,19.3940129 L129.352,19.3940129 L129.279,18.3011129 L129.236,18.3011129 C128.797,19.1327129 128.047,19.5485129 126.994,19.5485129 C126.153,19.5485129 125.453,19.2265129 124.898,18.5826129 C124.342,17.9387129 124.066,17.1028129 124.066,16.0763129 C124.066,14.9747129 124.366,14.0824129 124.97,13.4010129 C125.555,12.7657129 126.272,12.4481129 127.125,12.4481129 C128.062,12.4481129 128.718,12.7556129 129.091,13.3721129 L129.121,13.3721129 L129.121,9.46534289 L130.674,9.46534289 L130.674,17.5604129 C130.674,18.2231129 130.692,18.8338129 130.729,19.3940129 Z M129.121,16.5238129 L129.121,15.3890129 C129.121,15.1927129 129.106,15.0339129 129.078,14.9126129 C128.991,14.5488129 128.802,14.2427129 128.517,13.9958129 C128.228,13.7489129 127.88,13.6248129 127.479,13.6248129 C126.9,13.6248129 126.447,13.8486129 126.113,14.2976129 C125.783,14.7466129 125.616,15.3197129 125.616,16.0200129 C125.616,16.6927129 125.774,17.2385129 126.093,17.6586129 C126.429,18.1062129 126.882,18.3300129 127.449,18.3300129 C127.958,18.3300129 128.366,18.1437129 128.675,17.7698129 C128.974,17.4247129 129.121,17.0089129 129.121,16.5238129 Z" id="Shape" fill="#000000"></path>
                <path d="M144.002,15.9349129 C144.002,16.9816129 143.696,17.8392129 143.083,18.5120129 C142.44,19.2036129 141.59,19.5486129 140.525,19.5486129 C139.502,19.5486129 138.686,19.2180129 138.076,18.5539129 C137.469,17.8912129 137.166,17.0553129 137.166,16.0475129 C137.166,14.9936129 137.478,14.1288129 138.106,13.4574129 C138.734,12.7861129 139.578,12.4497129 140.642,12.4497129 C141.666,12.4497129 142.49,12.7803129 143.112,13.4430129 C143.705,14.0869129 144.002,14.9185129 144.002,15.9349129 Z M142.394,15.9840129 C142.394,15.3560129 142.255,14.8175129 141.978,14.3685129 C141.651,13.8256129 141.189,13.5542129 140.585,13.5542129 C139.963,13.5542129 139.489,13.8256129 139.162,14.3685129 C138.883,14.8175129 138.746,15.3646129 138.746,16.0114129 C138.746,16.6395129 138.885,17.1780129 139.162,17.6270129 C139.498,18.1698129 139.966,18.4413129 140.57,18.4413129 C141.162,18.4413129 141.629,18.1655129 141.963,17.6126129 C142.249,17.1549129 142.394,16.6120129 142.394,15.9840129 Z" id="Shape" fill="#000000"></path>
                <path d="M152.346,19.3936129 L150.796,19.3936129 L150.796,15.4955129 C150.796,14.2943129 150.328,13.6937129 149.388,13.6937129 C148.927,13.6937129 148.555,13.8583129 148.268,14.1889129 C147.981,14.5195129 147.837,14.9093129 147.837,15.3554129 L147.837,19.3922129 L146.284,19.3922129 L146.284,14.5325129 C146.284,13.9348129 146.266,13.2865129 146.229,12.5849129 L147.591,12.5849129 L147.664,13.6489129 L147.707,13.6489129 C147.889,13.3183129 148.159,13.0454129 148.511,12.8274129 C148.933,12.5733129 149.402,12.4448129 149.919,12.4448129 C150.569,12.4448129 151.111,12.6498129 151.542,13.0613129 C152.08,13.5652129 152.346,14.3174129 152.346,15.3164129 L152.346,19.3936129 Z" id="Path" fill="#000000"></path>
                <path d="M162.79,13.7219129 L161.081,13.7219129 L161.081,17.0280129 C161.081,17.8683129 161.385,18.2884129 161.986,18.2884129 C162.264,18.2884129 162.495,18.2653129 162.677,18.2177129 L162.717,19.3655129 C162.411,19.4781129 162.008,19.5344129 161.512,19.5344129 C160.899,19.5344129 160.422,19.3525129 160.077,18.9887129 C159.731,18.6248129 159.559,18.0127129 159.559,17.1537129 L159.559,13.7219129 L158.539,13.7219129 L158.539,12.5885129 L159.559,12.5885129 L159.559,11.3411129 L161.08,10.8936129 L161.08,12.5871129 L162.788,12.5871129 L162.788,13.7219129 L162.79,13.7219129 Z" id="Path" fill="#000000"></path>
                <path d="M171.005,19.3940129 L169.451,19.3940129 L169.451,15.5248129 C169.451,14.3048129 168.983,13.6941129 168.046,13.6941129 C167.327,13.6941129 166.835,14.0478129 166.565,14.7552129 C166.519,14.9039129 166.493,15.0859129 166.493,15.2995129 L166.493,19.3926129 L164.942,19.3926129 L164.942,9.46534289 L166.493,9.46534289 L166.493,13.5670129 L166.522,13.5670129 C167.011,12.8206129 167.712,12.4481129 168.619,12.4481129 C169.262,12.4481129 169.793,12.6531129 170.215,13.0646129 C170.741,13.5771129 171.005,14.3394129 171.005,15.3472129 L171.005,19.3940129 Z" id="Path" fill="#000000"></path>
                <path d="M179.48,15.6681129 C179.48,15.9395129 179.459,16.1676129 179.422,16.3539129 L174.768,16.3539129 C174.789,17.0267129 175.011,17.5392129 175.442,17.8944129 C175.836,18.2120129 176.344,18.3708129 176.966,18.3708129 C177.654,18.3708129 178.282,18.2640129 178.848,18.0488129 L179.09,19.0999129 C178.429,19.3800129 177.65,19.5200129 176.748,19.5200129 C175.667,19.5200129 174.815,19.2096129 174.199,18.5888129 C173.581,17.9680129 173.274,17.1350129 173.274,16.0897129 C173.274,15.0632129 173.56,14.2085129 174.136,13.5270129 C174.737,12.7994129 175.55,12.4355129 176.576,12.4355129 C177.58,12.4355129 178.343,12.7994129 178.858,13.5270129 C179.274,14.1045129 179.48,14.8192129 179.48,15.6681129 Z M177.999,15.2768129 C178.011,14.8278129 177.909,14.4409129 177.699,14.1146129 C177.429,13.6945129 177.019,13.4837129 176.464,13.4837129 C175.957,13.4837129 175.544,13.6887129 175.229,14.1002129 C174.971,14.4279129 174.818,14.8192129 174.768,15.2768129 L177.999,15.2768129 Z" id="Shape" fill="#000000"></path>
            </g>
        </g>
    </g>
</svg>