<?xml version="1.0" encoding="UTF-8"?>
<svg width="18px" height="18px" viewBox="0 0 18 18" version="1.1" xmlns="http://www.w3.org/2000/svg" xmlns:xlink="http://www.w3.org/1999/xlink">
    <title>mobile-no</title>
    <g id="Page-1" stroke="none" stroke-width="1" fill="none" fill-rule="evenodd">
        <g id="mobile-no" fill="#BBBBBB" fill-rule="nonzero">
            <path d="M3.43750386,7.41122941 C4.79537824,10.1383377 7.00539554,12.348355 9.73250386,13.7062294 L11.8325039,11.6062294 C12.070073,11.3156687 12.4747415,11.2237735 12.8145039,11.3832294 C13.9090867,11.7441633 15.0549634,11.92518 16.2075039,11.9192294 C16.4498092,11.9210588 16.6818763,12.0171855 16.8545039,12.1872294 C17.044397,12.3574807 17.1503451,12.6022573 17.1445039,12.8572294 L17.1445039,16.2052294 C17.1404391,16.4514919 17.0356281,16.685329 16.8545039,16.8522294 C16.6876034,17.0333536 16.4537663,17.1381647 16.2075039,17.1422294 C13.3461445,17.1656395 10.5312728,16.4181389 8.05850386,14.9782294 C5.60783019,13.5692941 3.57443915,11.5359031 2.16550386,9.08522941 C0.725592034,6.61314447 -0.0222431937,3.79900424 0.000503860658,0.938229413 C0.00456859264,0.691966939 0.109379658,0.458129838 0.290503861,0.291229413 C0.457469014,0.109485812 0.691741443,0.0042801377 0.938503861,0.000229413347 L4.28650386,0.000229413347 C4.541476,-0.00561184034 4.7862526,0.100336239 4.95650386,0.290229413 C5.12654782,0.462856992 5.22267452,0.694924061 5.22450386,0.937229413 C5.21855323,2.08976986 5.39957,3.23564655 5.76050386,4.33022941 C5.88972691,4.67267077 5.80195402,5.05918635 5.53750386,5.31222941 L3.43750386,7.41122941 Z" id="Path_24833"></path>
        </g>
    </g>
</svg>