<?xml version="1.0" encoding="UTF-8"?>
<svg width="230px" height="42px" viewBox="0 0 230 42" version="1.1" xmlns="http://www.w3.org/2000/svg" xmlns:xlink="http://www.w3.org/1999/xlink">
    <title>fittrLogo (5)</title>
    <defs>
        <rect id="path-1" x="0" y="0" width="228.309" height="40.149"></rect>
    </defs>
    <g id="Page-1" stroke="none" stroke-width="1" fill="none" fill-rule="evenodd">
        <g id="fittrLogo-(5)">
            <rect id="Rectangle_3025" fill="#FFFFFF" fill-rule="nonzero" opacity="0" x="0" y="0" width="230" height="42"></rect>
            <g id="Group_5954-Clipped" transform="translate(0.000000, 1.000000)">
                <mask id="mask-2" fill="white">
                    <use xlink:href="#path-1"></use>
                </mask>
                <g id="Rectangle_3024"></g>
                <g id="Group_5954" mask="url(#mask-2)" fill="#000000">
                    <path d="M20.083,9.908 L20.083,9.908 L8.1,9.908 L8.982,6.62 C10.1013819,2.86211523 13.4616287,0.213143992 17.377,0.002 L58.042,0.002 L57.182,3.213 C56.0529536,7.01573009 52.6549654,9.69793088 48.694,9.913 L20.083,9.908 Z M18.564,15.579 L45.264,15.579 L44.771,17.416 C43.6413241,21.2195472 40.2419802,23.9018701 36.28,24.116 L16.28,24.116 C14.848,29.462 13.4146667,34.8066667 11.98,40.15 L0,40.15 L4.792,22.262 C5.92099891,18.4672893 9.31363503,15.7920105 13.267,15.579 L18.564,15.579 Z" id="Path_17022"></path>
                    <polygon id="Path_17023" points="62.068 0.002 74.051 0.002 63.295 40.147 51.312 40.147"></polygon>
                    <path d="M116.015,0.002 L84.768,0.002 C80.808299,0.217286754 77.4105951,2.89663048 76.278,6.697 L75.418,9.907 L93.058,9.907 C90.3573333,19.987 87.6573333,30.0673333 84.958,40.148 L96.94,40.148 C99.6406667,30.068 102.340667,19.9876667 105.04,9.907 L122.676,9.907 L125.33,0.007 L116.015,0.002 Z" id="Path_17024"></path>
                    <path d="M138.641,0.002 L129.327,0.002 L127.534,6.695 L127.534,6.695 L126.674,9.905 L144.309,9.905 C141.609,19.985 138.909,30.0653333 136.209,40.146 L148.191,40.146 C150.891667,30.066 153.591667,19.9856667 156.291,9.905 L167.231,9.905 C171.190767,9.69047058 174.588561,7.01073968 175.72,3.21 L176.58,-1.06685494e-16 L138.641,0.002 Z" id="Path_17025"></path>
                    <path d="M206.299,40.146 L219.023,40.146 L214.723,24.039 L217.023,24.032 C220.767802,23.824281 223.978756,21.2872116 225.047,17.692 C226.061,13.908 227.074667,10.124 228.088,6.34 C229.023,2.847 226.936,0 223.443,0 L187.249,0 C183.290414,0.214772226 179.893633,2.89353466 178.762,6.693 L177.901,9.908 L214.488,9.908 L212.999,15.464 C202.89,15.464 192.799,15.57 182.691,15.607 C178.948785,15.82005 175.742128,18.3571372 174.674,21.95 L169.797,40.15 L182.44,40.15 C183.870667,34.8093333 185.301,29.471 186.731,24.135 C191.788,24.135 196.836,24.113 201.879,24.095 L206.299,40.146 Z" id="Path_17026"></path>
                </g>
            </g>
        </g>
    </g>
</svg>