<?xml version="1.0" encoding="UTF-8"?>
<svg width="19px" height="16px" viewBox="0 0 19 16" version="1.1" xmlns="http://www.w3.org/2000/svg" xmlns:xlink="http://www.w3.org/1999/xlink">
    <title>contact-info</title>
    <g id="Page-1" stroke="none" stroke-width="1" fill="none" fill-rule="evenodd">
        <g id="contact-info" fill="#BBBBBB" fill-rule="nonzero">
            <path d="M16.6783954,0.00128789857 C17.177157,-0.00710477855 17.656627,0.193822894 18.0003954,0.555287899 C18.3577711,0.913736818 18.5538184,1.40223015 18.5433954,1.9082879 L18.5433954,13.2672879 C18.5538184,13.7733456 18.3577711,14.261839 18.0003954,14.6202879 C17.6560911,14.9828975 17.1753459,15.1842662 16.6753954,15.1752879 L1.86839536,15.1752879 C1.36844484,15.1842662 0.887699617,14.9828975 0.543395358,14.6202879 C0.186019571,14.261839 -0.0100276429,13.7733456 0.000395358341,13.2672879 L0.000395358341,1.9082879 C-0.0100276429,1.40223015 0.186019571,0.913736818 0.543395358,0.555287899 C0.887699617,0.192678321 1.36844484,-0.00869043399 1.86839536,0.000287898566 L16.6783954,0.00128789857 Z M16.6783954,3.8172879 L16.6783954,1.9082879 L9.25139536,6.6562879 L1.86839536,1.9082879 L1.86839536,3.8162879 L9.25239536,8.5162879 L16.6783954,3.8172879 Z" id="Path_24832"></path>
        </g>
    </g>
</svg>