<?xml version="1.0" encoding="UTF-8"?>
<svg width="203px" height="59px" viewBox="0 0 203 59" version="1.1" xmlns="http://www.w3.org/2000/svg" xmlns:xlink="http://www.w3.org/1999/xlink">
    <title>Group 4 2</title>
    <defs>
        <linearGradient x1="61.5776965%" y1="95.03936%" x2="26.2218797%" y2="26.4881512%" id="linearGradient-1">
            <stop stop-color="#00A0FF" offset="0%"></stop>
            <stop stop-color="#00A1FF" offset="0.66%"></stop>
            <stop stop-color="#00BEFF" offset="26.01%"></stop>
            <stop stop-color="#00D2FF" offset="51.22%"></stop>
            <stop stop-color="#00DFFF" offset="76.04%"></stop>
            <stop stop-color="#00E3FF" offset="100%"></stop>
        </linearGradient>
        <linearGradient x1="107.585705%" y1="49.9836438%" x2="-130.492157%" y2="49.9836438%" id="linearGradient-2">
            <stop stop-color="#FFE000" offset="0%"></stop>
            <stop stop-color="#FFBD00" offset="40.87%"></stop>
            <stop stop-color="#FFA500" offset="77.54%"></stop>
            <stop stop-color="#FF9C00" offset="100%"></stop>
        </linearGradient>
        <linearGradient x1="86.2376858%" y1="11.5789662%" x2="-46.8668613%" y2="-91.0091632%" id="linearGradient-3">
            <stop stop-color="#FF3A44" offset="0%"></stop>
            <stop stop-color="#C31162" offset="100%"></stop>
        </linearGradient>
        <linearGradient x1="-18.8013881%" y1="165.53589%" x2="40.6360438%" y2="119.741561%" id="linearGradient-4">
            <stop stop-color="#32A071" offset="0%"></stop>
            <stop stop-color="#2DA771" offset="6.85%"></stop>
            <stop stop-color="#15CF74" offset="47.62%"></stop>
            <stop stop-color="#06E775" offset="80.09%"></stop>
            <stop stop-color="#00F076" offset="100%"></stop>
        </linearGradient>
    </defs>
    <g id="Page-1" stroke="none" stroke-width="1" fill="none" fill-rule="evenodd">
        <g id="Group-Copy" transform="translate(0.000000, -0.000000)" fill-rule="nonzero">
            <g id="Group-4" transform="translate(0.000000, 0.000156)">
                <path d="M195.071,58.601957 L7.50274,58.601957 C3.37811,58.601957 0,55.303757 0,51.276657 L0,7.32523705 C0,3.29818705 3.37811,0 7.50274,0 L195.071,0 C199.196,0 202.574,3.29818705 202.574,7.32523705 L202.574,51.276657 C202.574,55.303757 199.196,58.601957 195.071,58.601957 Z" id="Path"></path>
                <g id="Group-3">
                    <path d="M195.071,1.17386705 C198.545,1.17386705 201.372,3.93365705 201.372,7.32523705 L201.372,51.276657 C201.372,54.668257 198.545,57.428057 195.071,57.428057 L7.50274,57.428057 C4.02897,57.428057 1.20231,54.668257 1.20231,51.276657 L1.20231,7.32523705 C1.20231,3.93365705 4.02897,1.17386705 7.50274,1.17386705 L195.071,1.17386705 Z M195.071,0 L7.50274,0 C3.37811,0 0,3.29818705 0,7.32523705 L0,51.276657 C0,55.303757 3.37811,58.601957 7.50274,58.601957 L195.071,58.601957 C199.196,58.601957 202.574,55.303757 202.574,51.276657 L202.574,7.32523705 C202.574,3.29818705 199.196,0 195.071,0 Z" id="Shape" fill="#A6A6A6"></path>
                    <g id="Group-2" transform="translate(14.962400, 10.056957)">
                        <path d="M56.1902,4.9501 C56.1902,6.1734 55.815,7.1531 55.076,7.8838 C54.2263,8.75 53.1197,9.1859 51.7636,9.1859 C50.4675,9.1859 49.3608,8.7427 48.453,7.8692 C47.5433,6.9828 47.0894,5.895 47.0894,4.593 C47.0894,3.2909 47.5433,2.2031 48.453,1.3241 C49.3608,0.4432 50.4675,0 51.7636,0 C52.4088,0 53.024,0.1301 53.6111,0.3718 C54.1963,0.6153 54.6727,0.945 55.0179,1.3515 L54.2338,2.1243 C53.6317,1.4303 52.8121,1.0878 51.7636,1.0878 C50.8182,1.0878 49.9985,1.4101 49.3027,2.0603 C48.6143,2.7122 48.2692,3.5564 48.2692,4.593 C48.2692,5.6295 48.6143,6.481 49.3027,7.133 C49.9985,7.7758 50.8182,8.1054 51.7636,8.1054 C52.7671,8.1054 53.6111,7.7758 54.277,7.1257 C54.7159,6.6953 54.9654,6.102 55.031,5.3438 L51.7636,5.3438 L51.7636,4.2853 L56.1227,4.2853 C56.1752,4.5142 56.1902,4.7358 56.1902,4.9501 Z" id="Path" stroke="#FFFFFF" stroke-width="0.218999" fill="#000000"></path>
                        <polygon id="Path" stroke="#FFFFFF" stroke-width="0.218999" fill="#000000" points="63.1058 1.2803 59.0112 1.2803 59.0112 4.0639 62.7026 4.0639 62.7026 5.1224 59.0112 5.1224 59.0112 7.906 63.1058 7.906 63.1058 8.9846 57.8521 8.9846 57.8521 0.2017 63.1058 0.2017"></polygon>
                        <polygon id="Path" stroke="#FFFFFF" stroke-width="0.218999" fill="#000000" points="67.9871 8.9846 66.8279 8.9846 66.8279 1.2803 64.3164 1.2803 64.3164 0.2017 70.5005 0.2017 70.5005 1.2803 67.9871 1.2803"></polygon>
                        <polygon id="Path" stroke="#FFFFFF" stroke-width="0.218999" fill="#000000" points="74.9756 8.9846 74.9756 0.2017 76.1329 0.2017 76.1329 8.9846"></polygon>
                        <polygon id="Path" stroke="#FFFFFF" stroke-width="0.218999" fill="#000000" points="81.2625 8.9846 80.1127 8.9846 80.1127 1.2803 77.5918 1.2803 77.5918 0.2017 83.7834 0.2017 83.7834 1.2803 81.2625 1.2803"></polygon>
                        <path d="M95.4916,7.8545 C94.6046,8.7427 93.5056,9.1859 92.1936,9.1859 C90.8756,9.1859 89.7766,8.7427 88.8896,7.8545 C88.0036,6.9682 87.5626,5.8804 87.5626,4.593 C87.5626,3.3055 88.0036,2.2177 88.8896,1.3314 C89.7766,0.4432 90.8756,0 92.1936,0 C93.4976,0 94.5966,0.4432 95.4836,1.3387 C96.3766,2.2324 96.8176,3.3129 96.8176,4.593 C96.8176,5.8804 96.3766,6.9682 95.4916,7.8545 Z M89.7466,7.1183 C90.4136,7.7758 91.2266,8.1054 92.1936,8.1054 C93.1546,8.1054 93.9736,7.7758 94.6346,7.1183 C95.3006,6.4609 95.6376,5.6167 95.6376,4.593 C95.6376,3.5693 95.3006,2.725 94.6346,2.0676 C93.9736,1.4101 93.1546,1.0805 92.1936,1.0805 C91.2266,1.0805 90.4136,1.4101 89.7466,2.0676 C89.0806,2.725 88.7426,3.5693 88.7426,4.593 C88.7426,5.6167 89.0806,6.4609 89.7466,7.1183 Z" id="Shape" stroke="#FFFFFF" stroke-width="0.218999" fill="#000000"></path>
                        <polygon id="Path" stroke="#FFFFFF" stroke-width="0.218999" fill="#000000" points="98.4426 8.9846 98.4426 0.2017 99.8496 0.2017 104.2236 7.0325 104.2746 7.0325 104.2236 5.344 104.2236 0.2017 105.3806 0.2017 105.3806 8.9846 104.1726 8.9846 99.5926 1.8169 99.5416 1.8169 99.5926 3.5127 99.5926 8.9846"></polygon>
                        <path d="M87.2776,21.812 C83.7535,21.812 80.8744,24.4307 80.8744,28.0439 C80.8744,31.6278 83.7535,34.274 87.2776,34.274 C90.8096,34.274 93.6886,31.6278 93.6886,28.0439 C93.6886,24.4307 90.8096,21.812 87.2776,21.812 Z M87.2776,31.8201 C85.3446,31.8201 83.6804,30.2616 83.6804,28.0439 C83.6804,25.7969 85.3446,24.2659 87.2776,24.2659 C89.2116,24.2659 90.8826,25.7969 90.8826,28.0439 C90.8826,30.2616 89.2116,31.8201 87.2776,31.8201 Z M73.306,21.812 C69.7741,21.812 66.9024,24.4307 66.9024,28.0439 C66.9024,31.6278 69.7741,34.274 73.306,34.274 C76.836,34.274 79.7096,31.6278 79.7096,28.0439 C79.7096,24.4307 76.836,21.812 73.306,21.812 Z M73.306,31.8201 C71.3703,31.8201 69.7009,30.2616 69.7009,28.0439 C69.7009,25.7969 71.3703,24.2659 73.306,24.2659 C75.2398,24.2659 76.9035,25.7969 76.9035,28.0439 C76.9035,30.2616 75.2398,31.8201 73.306,31.8201 Z M56.6799,23.722 L56.6799,26.3701 L63.1566,26.3701 C62.9672,27.8498 62.4608,28.9376 61.6842,29.6958 C60.7389,30.6114 59.2665,31.6278 56.6799,31.6278 C52.6941,31.6278 49.5729,28.4871 49.5729,24.5956 C49.5729,20.704 52.6941,17.5633 56.6799,17.5633 C58.8351,17.5633 60.4031,18.3856 61.5604,19.4514 L63.4718,17.5853 C61.853,16.0763 59.6998,14.9171 56.6799,14.9171 C51.2142,14.9171 46.6206,19.2591 46.6206,24.5956 C46.6206,29.932 51.2142,34.274 56.6799,34.274 C59.6341,34.274 61.853,33.3291 63.5974,31.5564 C65.385,29.8111 65.942,27.3572 65.942,25.3757 C65.942,24.7604 65.8895,24.1945 65.7957,23.722 L56.6799,23.722 Z M124.6656,25.7749 C124.1386,24.3813 122.5126,21.812 119.2006,21.812 C115.9176,21.812 113.1846,24.3373 113.1846,28.0439 C113.1846,31.5344 115.8896,34.274 119.5156,34.274 C122.4466,34.274 124.1386,32.5288 124.8346,31.5124 L122.6586,30.0968 C121.9326,31.1333 120.9446,31.8201 119.5156,31.8201 C118.0956,31.8201 117.0766,31.1846 116.4246,29.932 L124.9606,26.4836 L124.6656,25.7749 Z M115.9626,27.8498 C115.8896,25.4471 117.8746,24.2165 119.2956,24.2165 C120.4096,24.2165 121.3556,24.7604 121.6706,25.5387 L115.9626,27.8498 Z M109.0246,33.8949 L111.8306,33.8949 L111.8306,15.5819 L109.0246,15.5819 L109.0246,33.8949 Z M104.4296,23.2001 L104.3356,23.2001 C103.7056,22.4712 102.5026,21.812 100.9796,21.812 C97.7836,21.812 94.8616,24.5516 94.8616,28.0641 C94.8616,31.5564 97.7836,34.274 100.9796,34.274 C102.5026,34.274 103.7056,33.6093 104.3356,32.8584 L104.4296,32.8584 L104.4296,33.7521 C104.4296,36.1346 103.1256,37.4147 101.0226,37.4147 C99.3086,37.4147 98.2446,36.2061 97.8066,35.1897 L95.3656,36.1841 C96.0696,37.8359 97.9316,39.8687 101.0226,39.8687 C104.3126,39.8687 107.0886,37.9788 107.0886,33.3804 L107.0886,22.191 L104.4296,22.191 L104.4296,23.2001 Z M101.2196,31.8201 C99.2856,31.8201 97.6676,30.2397 97.6676,28.0641 C97.6676,25.8683 99.2856,24.2659 101.2196,24.2659 C103.1256,24.2659 104.6276,25.8683 104.6276,28.0641 C104.6276,30.2397 103.1256,31.8201 101.2196,31.8201 Z M137.8036,15.5819 L131.0916,15.5819 L131.0916,33.8949 L133.8906,33.8949 L133.8906,26.9561 L137.8036,26.9561 C140.9116,26.9561 143.9596,24.7604 143.9596,21.2681 C143.9596,17.7776 140.9036,15.5819 137.8036,15.5819 Z M137.8766,24.4088 L133.8906,24.4088 L133.8906,18.1292 L137.8766,18.1292 C139.9656,18.1292 141.1586,19.8232 141.1586,21.2681 C141.1586,22.6855 139.9656,24.4088 137.8766,24.4088 Z M155.1756,21.7772 C153.1536,21.7772 151.0516,22.6489 150.1866,24.5809 L152.6696,25.5973 C153.2046,24.5809 154.1876,24.2513 155.2266,24.2513 C156.6786,24.2513 158.1506,25.1028 158.1736,26.6063 L158.1736,26.7986 C157.6666,26.5129 156.5826,26.0899 155.2486,26.0899 C152.5746,26.0899 149.8486,27.5275 149.8486,30.2104 C149.8486,32.6643 152.0396,34.2447 154.5026,34.2447 C156.3856,34.2447 157.4246,33.4151 158.0776,32.45 L158.1736,32.45 L158.1736,33.8656 L160.8756,33.8656 L160.8756,26.8407 C160.8756,23.5938 158.3926,21.7772 155.1756,21.7772 Z M154.8386,31.8128 C153.9226,31.8128 152.6476,31.3696 152.6476,30.2616 C152.6476,28.8442 154.2376,28.3003 155.6146,28.3003 C156.8466,28.3003 157.4246,28.5658 158.1736,28.9156 C157.9536,30.6114 156.4586,31.8128 154.8386,31.8128 Z M170.7236,22.1782 L167.5066,30.117 L167.4106,30.117 L164.0856,22.1782 L161.0676,22.1782 L166.0646,33.2723 L163.2136,39.4456 L166.1376,39.4456 L173.8366,22.1782 L170.7236,22.1782 Z M145.4976,33.8949 L148.3036,33.8949 L148.3036,15.5819 L145.4976,15.5819 L145.4976,33.8949 Z" id="Shape" fill="#000000"></path>
                        <path d="M0.6959,0.9881 C0.2551,1.4386 0,2.14 0,3.0483 L0,35.4478 C0,36.3562 0.2551,37.0576 0.6959,37.5081 L0.8047,37.607 L19.4002,19.4587 L19.4002,19.0301 L0.8047,0.8819 L0.6959,0.9881 Z" id="Path" fill="url(#linearGradient-1)"></path>
                        <path d="M25.592,25.5103 L19.4004,19.4578 L19.4004,19.0293 L25.5995,12.9768 L25.7383,13.0555 L33.0798,17.1339 C35.1749,18.2913 35.1749,20.1958 33.0798,21.3605 L25.7383,25.4315 L25.592,25.5103 Z" id="Path" fill="url(#linearGradient-2)"></path>
                        <path d="M25.7376,25.4321 L19.3996,19.2441 L0.6953,37.5078 C1.3912,38.222 2.526,38.3081 3.8165,37.5938 L25.7376,25.4321 Z" id="Path" fill="url(#linearGradient-3)"></path>
                        <path d="M25.7376,13.0552 L3.8165,0.8935 C2.526,0.1866 1.3912,0.2727 0.6953,0.9869 L19.3996,19.2432 L25.7376,13.0552 Z" id="Path" fill="url(#linearGradient-4)"></path>
                    </g>
                </g>
            </g>
        </g>
    </g>
</svg>